<?xml version="1.0" encoding="iso-8859-1"?>
<!-- Generator: Adobe Illustrator 19.0.0, SVG Export Plug-In . SVG Version: 6.00 Build 0)  -->
<svg xmlns="http://www.w3.org/2000/svg" xmlns:xlink="http://www.w3.org/1999/xlink" version="1.1" id="Capa_1" x="0px" y="0px" viewBox="0 0 501 501" style="enable-background:new 0 0 501 501;" xml:space="preserve" width="512" height="512">
<g>
	<path style="fill:#FF4927;" d="M490,256c0,135.31-109.69,245-245,245c-57.78,0-110.888-20.001-152.778-53.458   C36.012,402.649,0.02,252.354,0.06,250.539C2.964,117.751,111.515,11,245,11C380.31,11,490,120.69,490,256z"/>
	<path style="fill:#FFB23C;" d="M429,95c0,52.467-42.533,95-95,95s-95-42.533-95-95s42.533-95,95-95S429,42.533,429,95z"/>
	<path style="fill:#FFC981;" d="M395.957,95c0,34.218-27.739,61.957-61.957,61.957S272.043,129.218,272.043,95   S299.782,33.043,334,33.043S395.957,60.782,395.957,95z"/>
	<path style="fill:#FFD69E;" d="M395.957,95c0,30.612-22.208,56.022-51.387,61.04c-29.18-5.018-51.387-30.428-51.387-61.04   s22.208-56.022,51.387-61.04C373.749,38.978,395.957,64.388,395.957,95z"/>
	<path style="fill:#EE9500;" d="M269.128,121.871c1.746,4.215-0.256,9.047-4.471,10.793c-4.215,1.746-9.047-0.256-10.793-4.471   c-1.746-4.215,0.256-9.047,4.471-10.793C262.549,115.654,267.382,117.656,269.128,121.871z M272.666,144.651   c-3.226,3.226-3.226,8.457,0,11.683s8.457,3.226,11.683,0s3.226-8.457,0-11.683S275.892,141.425,272.666,144.651z M264.657,57.336   c-4.215-1.746-9.047,0.256-10.793,4.471c-1.746,4.215,0.256,9.047,4.471,10.793c4.215,1.746,9.047-0.256,10.793-4.471   C270.874,63.914,268.872,59.082,264.657,57.336z M272.666,33.666c-3.226,3.226-3.226,8.457,0,11.683s8.457,3.226,11.683,0   s3.226-8.457,0-11.683S275.892,30.44,272.666,33.666z M263.783,95c0-4.563-3.698-8.261-8.261-8.261   c-4.562,0-8.261,3.698-8.261,8.261c0,4.562,3.699,8.261,8.261,8.261C260.084,103.261,263.783,99.562,263.783,95z M409.666,72.6   c4.215-1.746,6.217-6.578,4.471-10.793c-1.746-4.215-6.578-6.217-10.793-4.471c-4.215,1.746-6.217,6.578-4.471,10.793   C400.618,72.344,405.451,74.346,409.666,72.6z M307.129,159.872c-4.215-1.746-9.047,0.256-10.793,4.471   c-1.746,4.215,0.256,9.047,4.471,10.793c4.215,1.746,9.047-0.256,10.793-4.471C313.346,166.451,311.344,161.618,307.129,159.872z    M334,24.783c4.562,0,8.261-3.699,8.261-8.261S338.562,8.261,334,8.261s-8.261,3.699-8.261,8.261S329.438,24.783,334,24.783z    M360.871,159.872c-4.215,1.746-6.217,6.578-4.471,10.793c1.746,4.215,6.578,6.217,10.793,4.471   c4.215-1.746,6.217-6.578,4.471-10.793C369.918,160.128,365.086,158.126,360.871,159.872z M383.651,33.666   c-3.226,3.226-3.226,8.457,0,11.683s8.457,3.226,11.683,0s3.226-8.457,0-11.683S386.877,30.44,383.651,33.666z M367.194,14.864   c-4.215-1.746-9.047,0.256-10.793,4.471c-1.746,4.215,0.256,9.047,4.471,10.793c4.215,1.746,9.047-0.256,10.793-4.471   C373.41,21.442,371.409,16.609,367.194,14.864z M383.651,144.651c-3.226,3.226-3.226,8.457,0,11.683s8.457,3.226,11.683,0   s3.226-8.457,0-11.683S386.877,141.425,383.651,144.651z M300.806,14.864c-4.215,1.746-6.217,6.578-4.471,10.793   c1.746,4.215,6.578,6.217,10.793,4.471c4.215-1.746,6.217-6.578,4.471-10.793C309.854,15.119,305.021,13.118,300.806,14.864z    M409.666,117.4c-4.215-1.746-9.047,0.256-10.793,4.471c-1.746,4.215,0.256,9.047,4.471,10.793   c4.215,1.746,9.047-0.256,10.793-4.471C415.882,123.979,413.881,119.146,409.666,117.4z M334,165.217   c-4.562,0-8.261,3.699-8.261,8.261s3.698,8.261,8.261,8.261s8.261-3.699,8.261-8.261S338.562,165.217,334,165.217z M412.478,86.739   c-4.562,0-8.261,3.698-8.261,8.261c0,4.562,3.698,8.261,8.261,8.261c4.562,0,8.261-3.698,8.261-8.261   C420.739,90.438,417.041,86.739,412.478,86.739z M336.391,49.565h-4.783c-5.523,0-10,4.477-10,10v70.87c0,5.523,4.477,10,10,10   h4.783c5.523,0,10-4.477,10-10v-70.87C346.391,54.042,341.914,49.565,336.391,49.565z"/>
	<path style="fill:#FFA40C;" d="M487.306,243.564l-159.391,13.945c-8.253,0.722-15.528-5.383-16.25-13.636l-1.181-13.496   c-0.722-8.253,5.383-15.528,13.636-16.25l159.391-13.945c8.253-0.722,15.528,5.383,16.25,13.636l1.181,13.496   C501.664,235.566,495.559,242.842,487.306,243.564z M436.38,344.941l2.353-13.342c1.439-8.158-4.009-15.938-12.167-17.377   l-157.569-27.784c-8.158-1.439-15.938,4.009-17.377,12.167l-2.353,13.342c-1.439,8.158,4.009,15.938,12.167,17.377l157.569,27.784   C427.162,358.547,434.942,353.1,436.38,344.941z"/>
	<path style="fill:#FFB23C;" d="M487.348,226.975l-3.82,0.334l-0.72-8.229c-0.398-4.545-4.405-7.907-8.949-7.51   s-7.907,4.404-7.509,8.949l0.72,8.229l-21.945,1.92l-0.72-8.229c-0.398-4.545-4.404-7.907-8.949-7.51   c-4.545,0.398-7.907,4.405-7.509,8.949l0.72,8.229l-21.945,1.92L406,225.8c-0.398-4.545-4.404-7.907-8.949-7.51   c-4.545,0.398-7.907,4.405-7.509,8.949l0.72,8.229l-21.945,1.92l-0.72-8.229c-0.398-4.545-4.404-7.907-8.949-7.509   c-4.545,0.397-7.907,4.404-7.509,8.949l0.72,8.229l-2.997,0.262c-7.435,0.65-13.989-4.849-14.639-12.284   s4.849-13.989,12.284-14.639l138.489-12.116c7.435-0.65,13.989,4.849,14.639,12.284l0,0   C500.282,219.771,494.782,226.325,487.348,226.975z M428.03,314.481l-136.906-24.14c-7.35-1.296-14.358,3.611-15.654,10.961   c-1.296,7.35,3.612,14.358,10.961,15.654l2.963,0.522l1.435-8.135c0.792-4.493,5.077-7.493,9.57-6.701   c4.493,0.792,7.493,5.077,6.701,9.57l-1.435,8.135l21.694,3.825l1.434-8.135c0.792-4.493,5.077-7.493,9.57-6.701   s7.493,5.077,6.701,9.57l-1.435,8.135l21.694,3.825l1.435-8.135c0.792-4.493,5.077-7.493,9.57-6.701   c4.493,0.792,7.493,5.077,6.701,9.57l-1.434,8.135l21.694,3.825l1.435-8.135c0.792-4.493,5.077-7.493,9.57-6.701   s7.493,5.077,6.701,9.57l-1.434,8.135l3.777,0.666c7.35,1.296,14.358-3.612,15.654-10.961l0,0   C440.287,322.785,435.38,315.777,428.03,314.481z"/>
	<path style="fill:#FFBFAB;" d="M435.243,350L435.243,350c7.598,0,13.757,6.159,13.757,13.757v0c0,3.967-1.713,7.741-4.698,10.353   l-52.68,46.095C377.038,432.967,358.319,440,338.941,440h-100.01c-12.666,0-24.716-5.468-33.056-15l0,0   c-8.341-9.532-20.39-15-33.056-15H69V290h102.697c3.46-5.972,9.904-10,17.303-10h10h50h100c11.288,0,20.392,9.351,19.987,20.729   C368.602,311.567,359.365,320,348.521,320H279h-30c-11.046,0-20,8.954-20,20l0,0c0,11.046,8.954,20,20,20h30h94.62   c16.81,0,33.51-2.71,49.458-8.026h0C427,350.667,431.108,350,435.243,350z"/>
	<path style="fill:#FFA78F;" d="M449,363.757c0,3.967-1.713,7.741-4.698,10.354l-52.68,46.095   C377.038,432.967,358.319,440,338.941,440h-100.01c-12.666,0-24.716-5.468-33.057-15s-20.39-15-33.057-15H69v-30h103.818   c12.666,0,24.716,5.468,33.057,15s20.39,15,33.057,15h100.01c19.378,0,38.097-7.033,52.68-19.794l45.744-40.026   C443.953,351.203,449,356.883,449,363.757z"/>
	<path style="fill:#FFDFCF;" d="M359,310h-15c-2.761,0-5-2.239-5-5v-20c0-2.761,2.239-5,5-5h15c5.523,0,10,4.477,10,10v10   C369,305.523,364.523,310,359,310z"/>
	<path style="fill:#FFE2BD;" d="M129,275v150c0,2.761-2.239,5-5,5H84c-2.761,0-5-2.239-5-5V275c0-2.761,2.239-5,5-5h40   C126.761,270,129,272.239,129,275z"/>
	<path style="fill:#FFF5F5;" d="M129,275v105H79V275c0-2.761,2.239-5,5-5h40C126.761,270,129,272.239,129,275z"/>
	<path style="fill:#013963;" d="M99,265v170c0,5.242-2.693,9.849-6.767,12.531C36.023,402.638,0,333.531,0,256   c0-1.826,0.029-3.645,0.069-5.462C1.324,250.198,2.637,250,4,250h80C92.284,250,99,256.716,99,265z"/>
	<path style="fill:#014C7E;" d="M99,265v140c0,8.284-6.716,15-15,15H62.997C23.842,376.575,0,319.074,0,256   c0-1.826,0.029-3.645,0.069-5.462C1.324,250.198,2.637,250,4,250h80C92.284,250,99,256.716,99,265z"/>
	<path style="fill:#FFF5F5;" d="M372.787,63.891l-7.678-7.678c-1.953-1.953-1.953-5.118,0-7.071l7.678-7.678   c1.953-1.953,5.118-1.953,7.071,0l7.678,7.678c1.953,1.953,1.953,5.118,0,7.071l-7.678,7.678   C377.905,65.843,374.739,65.843,372.787,63.891z M299.858,188.536l7.678-7.678c1.953-1.953,1.953-5.118,0-7.071l-7.678-7.678   c-1.953-1.953-5.118-1.953-7.071,0l-7.678,7.678c-1.953,1.953-1.953,5.118,0,7.071l7.678,7.678   C294.739,190.488,297.905,190.488,299.858,188.536z"/>
	<path style="fill:#FF6A31;" d="M444.63,289.744l-7.677,7.677c-1.953,1.953-5.119,1.953-7.071,0l-7.678-7.677   c-1.953-1.953-1.953-5.119,0-7.071l7.678-7.677c1.953-1.953,5.119-1.953,7.071,0l7.677,7.677   C446.583,284.625,446.583,287.792,444.63,289.744z M273.294,223.536c-1.953-1.953-5.118-1.953-7.071,0l-7.678,7.677   c-1.953,1.953-1.953,5.118,0,7.071l7.678,7.678c1.953,1.953,5.118,1.953,7.071,0l7.678-7.678c1.953-1.953,1.953-5.118,0-7.071   L273.294,223.536z"/>
</g>















</svg>
