<svg id="Capa_1" enable-background="new 0 0 512 512" height="512" viewBox="0 0 512 512" width="512" xmlns="http://www.w3.org/2000/svg"><g><path d="m434.618 84.596c-.008-.007-.014-.012-.022-.019l-75.039-25.821-130.994 25.822v57.141l214.585 35.402 38.266-35.402c-12.44-21.496-28.291-40.789-46.796-57.123z" fill="#e7a52e"/><g fill="#e7a52e"><path d="m434.598 427.422-97.943-18.635-108.092 18.635v57.141h54.874c57.387 0 109.83-21.152 149.966-56.082"/><path d="m228.563 370.282 154.537 22.37 98.315-22.371c10.231-17.686 18.166-36.868 23.384-57.141l-114.966-33.144-161.27 33.144z"/></g><path d="m504.799 198.859-70.201-41.929-206.035 41.929v57.141l224.963 40.62 58.474-40.62c0-19.734-2.498-38.876-7.201-57.141z" fill="#e7a52e"/><path d="m480.131 256c0-126.232-102.331-228.563-228.563-228.563-7.765 0-15.438.391-23.004 1.148v455.979h23.004c126.231-.001 228.563-102.332 228.563-228.564z" fill="#e28424"/><g fill="#c85929"><path d="m434.598 84.578c-40.29-35.556-93.201-57.141-151.161-57.141h-54.874v57.141z"/><path d="m228.563 198.859h276.236c-5.218-20.273-13.153-39.454-23.384-57.141h-252.852z"/><path d="m228.563 313.141h276.236c4.701-18.264 7.201-37.41 7.201-57.141h-283.437z"/><path d="m228.563 427.422h206.035c18.518-16.342 34.373-35.629 46.817-57.141h-252.852z"/></g><path d="m449.545 370.282h-220.982v57.141h174.165c18.518-16.342 34.373-35.63 46.817-57.141z" fill="#b94029"/><path d="m480.131 256h-251.567v57.141h244.366c4.7-18.264 7.201-37.41 7.201-57.141z" fill="#b94029"/><path d="m449.545 141.718h-220.982v57.141h244.367c-5.218-20.273-13.153-39.454-23.385-57.141z" fill="#b94029"/><path d="m251.567 27.437c-7.765 0-15.438.391-23.004 1.148v55.993h174.165c-40.29-35.556-93.201-57.141-151.161-57.141z" fill="#b94029"/><circle cx="228.563" cy="256" fill="#f6e266" r="228.563"/><path d="m76.857 426.939c11.555 10.262 24.148 19.379 37.617 27.153l62.697-420.852c-15.273 3.509-29.956 8.557-43.89 14.957z" fill="#fbf4af"/><path d="m457.126 256c0-126.232-102.331-228.563-228.563-228.563-4.154 0-8.28.118-12.38.337 120.475 6.431 216.183 106.148 216.183 228.226s-95.709 221.795-216.183 228.227c4.1.219 8.226.337 12.38.337 126.232-.001 228.563-102.332 228.563-228.564z" fill="#eab14d"/><circle cx="228.563" cy="256" fill="#e7a52e" r="184.077"/><path d="m412.64 256c0-101.663-82.414-184.077-184.077-184.077-4.604 0-9.168.174-13.687.507 95.27 7.003 170.39 86.512 170.39 183.57s-75.119 176.567-170.39 183.57c4.52.332 9.083.507 13.687.507 101.663 0 184.077-82.414 184.077-184.077z" fill="#e28424"/><path d="m85.136 371.371c10.541 13.088 22.83 24.708 36.523 34.494l48.331-324.422c-16.109 5.403-31.221 12.975-44.994 22.366z" fill="#eab14d"/><path d="m229.004 204.738c0-30.488-25.815-55.293-57.547-55.293h-40.736c-.008 0-.017.001-.025.001s-.016-.001-.025-.001c-8.534 0-15.453 6.919-15.453 15.453v153.295c0 8.534 6.919 15.453 15.453 15.453s15.453-6.919 15.453-15.453v-50.831c0-.375.232-.711.584-.844.351-.133.748-.034.996.248l54.248 61.637c3.054 3.471 7.319 5.243 11.606 5.243 3.626 0 7.268-1.269 10.203-3.853 6.406-5.638 7.029-15.402 1.39-21.809l-42.014-47.736c-.212-.241-.28-.577-.178-.882s.358-.531.673-.597c25.901-5.383 45.372-27.557 45.372-54.031zm-57.547 24.386c-5.768 0-16.234.046-25.089.091-.046-8.699-.093-18.906-.093-24.478 0-4.737-.028-15.315-.054-24.387h25.235c14.441 0 26.641 11.168 26.641 24.387.001 13.219-12.199 24.387-26.64 24.387z" fill="#c85929"/><path d="m341.908 275.025c0-25.143-20.456-45.599-45.599-45.599-6.94 0-13.519 1.565-19.413 4.35-2.78-2.688-6.56-4.35-10.733-4.35-8.534 0-15.453 6.919-15.453 15.453v102.224c0 8.534 6.919 15.453 15.453 15.453s15.453-6.919 15.453-15.453v-28.922c4.614 1.575 9.553 2.443 14.693 2.443 25.143 0 45.599-20.456 45.599-45.599zm-45.599 14.693c-8.102 0-14.693-6.592-14.693-14.693 0-8.102 6.592-14.693 14.693-14.693 8.102 0 14.693 6.592 14.693 14.693.001 8.101-6.591 14.693-14.693 14.693z" fill="#c85929"/></g></svg>